<?xml version="1.0" standalone="no"?>
<!DOCTYPE svg PUBLIC "-//W3C//DTD SVG 20010904//EN"
 "http://www.w3.org/TR/2001/REC-SVG-20010904/DTD/svg10.dtd">
<svg version="1.0" xmlns="http://www.w3.org/2000/svg"
 width="2000.000000pt" height="500.000000pt" viewBox="0 0 2000.000000 500.000000"
 preserveAspectRatio="xMidYMid meet">

<g transform="translate(0.000000,500.000000) scale(0.100000,-0.100000)"
fill="#000000" stroke="none">
<path d="M139 4991 c-52 -11 -94 -45 -118 -94 l-21 -43 0 -2427 0 -2427 1391
0 c764 0 1388 3 1386 8 -65 120 -412 714 -443 758 -89 127 -241 244 -388 299
-161 60 -120 58 -1011 65 l-820 6 791 2 c869 2 890 1 1040 -57 163 -63 316
-183 408 -319 25 -37 135 -222 245 -412 l199 -345 8601 -3 8601 -2 -2 2437 -3
2438 -23 37 c-13 20 -39 47 -59 59 l-35 22 -9852 3 c-5418 2 -9867 0 -9887 -5z
m1138 -2182 c178 -110 193 -121 193 -148 0 -22 -152 -126 -180 -124 -10 1 -54
22 -98 47 -43 25 -87 46 -96 46 -21 0 -139 -64 -155 -84 -8 -9 -11 -48 -9
-107 l3 -93 70 -42 c39 -24 79 -43 90 -43 11 0 54 19 95 44 41 25 80 45 86 45
15 0 25 -26 18 -45 -8 -20 -170 -115 -198 -115 -12 0 -56 20 -98 45 -43 25
-84 45 -93 45 -23 0 -66 -46 -59 -64 6 -16 234 -166 252 -166 15 0 325 180
334 194 4 6 8 55 8 109 0 82 3 99 17 104 10 4 23 -2 35 -16 15 -19 18 -41 18
-117 0 -82 -3 -96 -22 -117 -28 -29 -368 -227 -392 -227 -17 0 -329 190 -360
220 -27 27 -13 50 62 100 l67 45 5 120 5 119 100 58 c55 32 110 58 122 58 12
0 57 -20 99 -45 83 -49 98 -53 132 -29 43 30 25 53 -98 136 -63 42 -122 77
-130 77 -16 1 -302 -160 -332 -187 -14 -12 -18 -31 -18 -97 0 -70 -3 -85 -20
-100 -34 -30 -41 -8 -38 116 l3 114 190 112 c105 62 199 112 209 113 10 0 93
-45 183 -101z m670 -200 c32 -12 73 -47 73 -63 0 -6 -12 -19 -26 -27 -25 -16
-29 -15 -62 7 -76 52 -161 8 -162 -84 0 -54 12 -77 50 -97 42 -22 85 -19 116
9 26 22 29 22 56 7 36 -20 35 -33 -2 -65 -117 -98 -311 -10 -310 141 0 44 28
110 56 134 54 46 146 63 211 38z m360 -5 c119 -57 132 -234 22 -317 -59 -43
-167 -41 -231 4 -99 71 -87 249 22 306 52 28 136 31 187 7z m223 -3 c0 -18 1
-18 37 0 49 25 128 25 169 0 52 -32 64 -72 64 -216 l0 -126 -42 3 -43 3 -3
122 c-3 119 -3 122 -30 143 -33 26 -85 22 -116 -10 -18 -18 -22 -37 -26 -138
l-5 -117 -42 -3 -43 -3 0 180 0 181 40 0 c33 0 40 -4 40 -19z m567 8 c65 -24
113 -97 113 -171 l0 -28 -140 0 c-77 0 -140 -3 -140 -6 0 -17 24 -46 50 -59
38 -19 83 -19 126 1 32 16 36 15 54 -1 30 -27 25 -42 -21 -66 -51 -26 -143
-27 -194 -3 -45 21 -84 71 -95 121 -11 47 5 123 32 158 44 56 144 81 215 54z
m237 -44 c22 -30 42 -55 46 -55 4 0 24 25 46 55 37 51 42 55 82 55 23 0 42 -3
42 -7 0 -5 -27 -43 -61 -87 -33 -43 -58 -83 -56 -90 3 -6 29 -42 59 -81 78
-101 76 -95 21 -95 -47 1 -49 1 -91 61 l-43 61 -46 -61 c-43 -59 -47 -61 -89
-61 -24 0 -44 3 -44 6 0 3 30 44 66 90 l66 85 -43 57 c-23 31 -54 72 -67 90
l-24 32 48 0 c48 0 50 -2 88 -55z m475 37 c59 -32 71 -68 71 -214 l0 -128 -40
0 c-29 0 -40 4 -40 15 0 14 -4 13 -32 -1 -63 -33 -172 -13 -198 35 -14 27 -12
93 4 113 22 29 81 48 151 48 62 0 65 1 65 24 0 13 -7 29 -15 36 -25 21 -97 24
-139 6 -22 -9 -40 -15 -41 -14 -18 23 -25 52 -15 62 37 37 173 48 229 18z
m13064 1 c-7 -2 -21 -2 -30 0 -10 3 -4 5 12 5 17 0 24 -2 18 -5z m207 -53 l0
-60 25 12 c21 9 23 14 12 26 -10 13 -9 14 8 4 11 -6 33 -13 48 -17 16 -3 40
-18 53 -32 23 -25 24 -32 22 -127 l-3 -101 -32 -3 -33 -3 0 90 c0 68 -4 93
-16 105 -21 22 -39 20 -64 -6 -17 -18 -20 -35 -20 -106 l0 -83 -32 3 -33 3 -3
178 -2 177 35 0 35 0 0 -60z m-3540 -90 l0 -140 50 0 c49 0 50 -1 50 -30 l0
-30 -80 0 -80 0 0 170 0 170 30 0 30 0 0 -140z m1500 95 c0 -38 3 -45 20 -45
15 0 20 -7 20 -25 0 -18 -5 -25 -20 -25 -19 0 -20 -7 -20 -100 l0 -100 -30 0
-30 0 0 100 c0 82 -3 100 -15 100 -9 0 -15 9 -15 25 0 16 6 25 15 25 11 0 15
12 15 45 0 43 1 45 30 45 29 0 30 -2 30 -45z m1338 13 c-3 -29 -7 -33 -35 -36
l-33 -3 0 -140 0 -140 -32 3 -33 3 -3 138 -3 137 -29 0 c-28 0 -30 3 -30 35
l0 35 101 0 100 0 -3 -32z m579 26 c-3 -3 -12 -4 -19 -1 -8 3 -5 6 6 6 11 1
17 -2 13 -5z m653 -9 c35 -18 50 -43 50 -85 0 -17 -5 -40 -10 -51 -14 -25 -62
-49 -100 -49 l-30 0 0 -75 0 -75 -35 0 -35 0 0 175 0 175 65 0 c39 0 78 -6 95
-15z m660 -30 c0 -38 3 -45 20 -45 16 0 20 -7 20 -30 0 -23 -4 -30 -20 -30
-19 0 -20 -7 -20 -101 l0 -100 -32 3 -33 3 -3 98 c-2 77 -6 97 -17 97 -10 0
-15 10 -15 30 0 20 5 30 15 30 11 0 15 12 15 45 0 45 0 45 35 45 35 0 35 0 35
-45z m-1700 -46 c0 -3 11 -11 23 -16 27 -13 57 -69 57 -107 l0 -26 -106 0
-106 0 14 -22 c17 -26 90 -37 113 -18 14 11 65 -5 65 -22 0 -20 -67 -48 -113
-48 -83 0 -134 46 -138 126 -4 63 31 117 88 134 31 9 103 9 103 -1z m349 -16
c34 -26 36 -38 7 -51 -20 -9 -31 -8 -55 4 -33 17 -64 12 -93 -14 -23 -19 -23
-79 -1 -104 18 -20 73 -24 105 -7 15 8 27 8 44 -2 32 -17 30 -25 -8 -49 -44
-26 -122 -27 -165 0 -95 57 -75 207 32 240 42 13 104 5 134 -17z m956 13 c19
-8 35 -11 35 -5 0 5 16 9 35 9 l36 0 -3 -127 -3 -128 -32 -3 c-25 -3 -33 1
-33 13 0 15 -2 15 -22 1 -48 -34 -135 -11 -163 44 -18 35 -19 106 -2 140 15
29 72 70 99 70 10 0 34 -7 53 -14z m280 4 c11 -18 -6 -50 -26 -50 -28 0 -39
-38 -39 -131 l0 -80 -32 3 -33 3 -3 128 -3 127 31 0 c16 0 30 -5 30 -11 0 -5
10 -3 22 5 26 18 44 20 53 6z m375 -5 c38 -20 52 -68 48 -170 l-3 -80 -32 -3
-31 -3 -4 96 c-2 71 -7 98 -18 105 -23 15 -37 12 -60 -12 -17 -18 -20 -35 -20
-106 l0 -83 -32 3 -33 3 -3 128 -3 127 36 0 c19 0 35 -5 35 -10 0 -6 12 -4 28
4 35 19 56 20 92 1z m305 -9 c33 -22 55 -57 62 -100 l6 -36 -108 0 -107 0 14
-22 c17 -26 75 -36 107 -19 14 8 27 8 45 -1 34 -15 33 -22 -8 -47 -40 -25
-114 -28 -156 -6 -69 36 -85 146 -31 209 39 46 123 56 176 22z m230 14 c11
-18 -6 -50 -25 -50 -30 0 -40 -32 -40 -125 l0 -86 -32 3 -33 3 -3 128 -3 127
31 0 c16 0 30 -5 30 -11 0 -5 10 -3 22 5 26 18 44 20 53 6z m160 -4 c37 -16
44 -36 20 -56 -12 -10 -21 -10 -41 -1 -50 22 -61 -10 -11 -35 79 -40 99 -93
52 -139 -31 -32 -101 -35 -136 -6 l-24 20 22 23 c18 17 25 20 35 10 14 -14 54
-16 62 -3 7 10 -19 33 -60 54 -60 31 -62 105 -4 134 32 16 43 16 85 -1z
m-5329 -29 c87 -79 32 -227 -84 -227 -96 0 -161 86 -132 175 18 54 64 85 128
85 45 0 57 -4 88 -33z m166 22 c3 -9 9 -9 25 0 34 18 90 14 113 -9 17 -17 20
-33 20 -125 l0 -105 -30 0 -30 0 0 88 c0 55 -4 92 -12 100 -18 18 -45 15 -68
-8 -17 -17 -20 -33 -20 -100 l0 -80 -30 0 -30 0 0 125 0 125 29 0 c16 0 31 -5
33 -11z m396 -5 c20 -14 22 -14 22 0 0 11 10 16 30 16 l30 0 0 -135 c0 -75 -5
-145 -11 -158 -33 -73 -201 -78 -240 -6 -10 20 -9 21 33 16 23 -3 58 -9 76
-12 39 -9 82 15 82 46 0 16 -3 18 -19 9 -29 -15 -88 -12 -122 6 -74 38 -77
169 -7 218 29 20 97 20 126 0z m852 1 c33 -17 60 -61 60 -100 l0 -25 -100 0
c-93 0 -100 -1 -100 -20 0 -11 11 -27 25 -36 24 -16 36 -15 105 1 35 8 58 -8
41 -29 -31 -37 -141 -45 -181 -13 -70 54 -66 182 8 221 35 20 105 20 142 1z
m160 -1 c0 -14 1 -14 16 0 8 9 26 16 39 16 21 0 23 -3 16 -22 -4 -13 -18 -24
-29 -26 -27 -4 -42 -54 -42 -139 0 -60 -1 -63 -24 -63 l-25 0 -3 125 -3 125
28 0 c18 0 27 -5 27 -16z m180 0 c0 -14 2 -14 22 0 33 23 93 20 117 -5 l20
-21 27 21 c37 29 88 28 119 -4 23 -22 25 -31 25 -125 l0 -100 -30 0 -29 0 -3
91 c-3 101 -13 117 -61 105 -32 -8 -47 -53 -47 -138 0 -55 -1 -58 -25 -58 -24
0 -25 2 -25 73 0 85 -15 121 -52 125 -42 5 -58 -29 -58 -120 l0 -78 -30 0 -30
0 0 125 0 125 30 0 c20 0 30 -5 30 -16z m-840 -109 c0 -24 -3 -25 -55 -25 -52
0 -55 1 -55 25 0 24 3 25 55 25 52 0 55 -1 55 -25z m-12575 -621 c216 -64 388
-181 500 -339 23 -33 202 -337 397 -675 431 -748 421 -730 414 -730 -10 0 -47
63 -429 725 -203 352 -390 666 -414 697 -86 112 -226 216 -363 271 -143 56
-152 57 -987 58 -422 0 -790 4 -818 9 -27 4 328 7 790 6 818 -2 842 -2 910
-22z"/>
<path d="M2170 2537 c-36 -18 -62 -74 -55 -117 8 -45 55 -90 96 -90 67 0 109
45 109 116 0 28 -8 44 -34 70 -37 37 -72 43 -116 21z"/>
<path d="M2959 2521 c-16 -16 -29 -34 -29 -40 0 -7 35 -11 99 -11 95 0 99 1
94 20 -9 33 -52 60 -95 60 -30 0 -46 -7 -69 -29z"/>
<path d="M3677 2398 c-35 -13 -48 -55 -22 -75 49 -35 135 4 135 62 0 23 -3 25
-42 24 -24 0 -55 -5 -71 -11z"/>
<path d="M17520 2500 c0 -29 2 -31 33 -28 27 2 32 7 32 28 0 21 -5 26 -32 28
-31 3 -33 1 -33 -28z"/>
<path d="M16467 2442 c-10 -10 -17 -22 -17 -25 0 -4 29 -7 65 -7 68 0 77 6 47
33 -25 22 -75 21 -95 -1z"/>
<path d="M17810 2447 c-14 -7 -28 -26 -34 -45 -12 -43 17 -86 62 -90 67 -7
100 85 46 127 -31 24 -40 25 -74 8z"/>
<path d="M18718 2449 c-10 -5 -18 -17 -18 -24 0 -12 15 -15 65 -15 68 0 77 6
47 33 -21 19 -68 22 -94 6z"/>
<path d="M13773 2448 c-25 -12 -45 -60 -36 -86 12 -33 36 -52 68 -52 43 0 64
18 71 62 5 30 2 41 -19 62 -28 28 -49 31 -84 14z"/>
<path d="M14365 2435 c-14 -13 -25 -36 -25 -50 0 -33 41 -75 73 -75 41 0 71
32 71 75 0 69 -71 99 -119 50z"/>
<path d="M15220 2463 c-20 -7 -50 -34 -50 -45 0 -4 32 -8 70 -8 39 0 70 4 70
8 0 25 -62 55 -90 45z"/>
</g>
</svg>
